# xmcd CD database file
#
# Track frame offsets:
#	150
#	18577
#	42278
#	62088
#	83097
#	104252
#
# Disc length: 1612 seconds
#
# Revision: 1
# Processed by: cddbd v1.5.2PL0 Copyright (c) Steve Scherf et al.
# Submitted via: CDex 1.51
#
DISCID=44064a06
DTITLE=Various Artist - ZM-CC-6
DYEAR=1900
DGENRE=Blues
TTITLE0=Lonstar - Amazed
TTITLE1=Coldplay - Scientist The
TTITLE2=Coldplay - Clocks
TTITLE3=Richard Marx - Hazard
TTITLE4=Cranberries The - Linger
TTITLE5=Peter Andre - Mysterious Girl (With Rapper)
EXTD=
EXTT0=
EXTT1=
EXTT2=
EXTT3=
EXTT4=
EXTT5=
PLAYORDER=
